<?xml version="1.0" encoding="utf-8"?>
<!-- Generator: Adobe Illustrator 23.0.3, SVG Export Plug-In . SVG Version: 6.00 Build 0)  -->
<svg version="1.1" id="Layer_1" xmlns="http://www.w3.org/2000/svg" xmlns:xlink="http://www.w3.org/1999/xlink" x="0px" y="0px"
	 viewBox="0 0 1912 1075.5" style="enable-background:new 0 0 1912 1075.5;" xml:space="preserve">
<style type="text/css">
	.st0{fill:#060043;}
	.st1{fill:#FFFFFF;}
	.st2{fill:none;}
	.st3{fill:#231F20;}
</style>
<g id="Layer_3">
</g>
<g>
	<path class="st0" d="M1820.35,849.72h-259.02c-2.44,0-4.42-1.98-4.42-4.42v-65.69c0-2.44,1.98-4.42,4.42-4.42h259.02
		c2.44,0,4.42,1.98,4.42,4.42v65.69C1824.77,847.74,1822.79,849.72,1820.35,849.72z"/>
</g>
<path class="st1" d="M1853.66,958.43H420.58c-2.56,0-4.64-2.08-4.64-4.64V837.34c0-2.56,2.08-4.64,4.64-4.64h1433.08
	c2.56,0,4.64,2.08,4.64,4.64V953.8C1858.29,956.36,1856.22,958.43,1853.66,958.43z"/>
<path class="st2" d="M70.47,320.36h290.26c4.66,0,8.45,3.78,8.45,8.45v290.26c0,4.66-3.78,8.45-8.45,8.45H70.47
	c-4.66,0-8.45-3.78-8.45-8.45V328.8C62.03,324.14,65.81,320.36,70.47,320.36z"/>
<rect y="982.27" class="st0" width="1912" height="72.66"/>
<path class="st1" d="M69.38,384.81c-2.52,0-4.57,2.04-4.57,4.57v209.44v28.63h0.03l12.75-13.36l12.56,13.36l12.75-13.36l12.56,13.36
	l12.75-13.36l12.56,13.36l12.75-13.36l12.56,13.36l12.75-13.36l12.56,13.36l12.75-13.36l12.56,13.36l12.75-13.36l12.56,13.36
	l12.76-13.36l12.56,13.36l12.75-13.36l12.56,13.36l12.76-13.36l12.56,13.36l12.75-13.36l12.56,13.36l12.76-13.36l12.52,13.32v-28.59
	V389.38c0-2.52-2.04-4.57-4.57-4.57H69.38z"/>
<rect x="116.35" y="557.65" class="st3" width="198.07" height="7.54"/>
<g>
	<g>
		<path class="st1" d="M286.03,99.25v38.83h-8.41v-31.03H264.2v31.03h-8.4V99.25H286.03z"/>
		<path class="st1" d="M317.75,130.27v7.82h-23.92V99.25h23.31v7.76h-14.91v7.67h13.47v7.61h-13.47v7.98H317.75z"/>
		<path class="st1" d="M352.76,112.61c0,7.66-5.91,13.35-13.71,13.35h-6.54v12.12h-8.4V99.25h14.94
			C346.84,99.25,352.76,104.94,352.76,112.61z M344.24,112.61c0-3.23-2.23-5.57-5.56-5.57h-6.17v11.14h6.17
			C342.02,118.18,344.24,115.83,344.24,112.61z"/>
		<path class="st1" d="M402.27,99.25v38.83h-45.12V99.25h8.4v31.04h10.06V99.25h8.2v31.04h10.07V99.25H402.27z"/>
		<path class="st1" d="M442.34,99.25v38.83h-8.4v-23.36l-17.96,23.36h-5.84V99.25h8.4v23.09l17.7-23.09H442.34z"/>
		<path class="st1" d="M482.38,99.25v38.83h-8.4v-23.36l-17.96,23.36h-5.84V99.25h8.4v23.09l17.7-23.09H482.38z M457.69,88.7h16.68
			v6.26h-16.68V88.7z"/>
		<path class="st1" d="M279.14,170.82c3.43,1.8,5.38,5.17,5.38,9.27c0,6.23-5.48,11.21-12.23,11.21h-16.51v-38.83h16.06
			c6.7,0,11.67,4.27,11.67,9.98C283.52,165.79,281.88,168.9,279.14,170.82L279.14,170.82z M271.5,183.59c2.76,0,4.58-1.83,4.58-4.38
			c0-2.5-1.82-4.33-4.58-4.33h-7.46v8.71H271.5L271.5,183.59z M275.37,163.77c0-2.44-1.69-4.14-4.33-4.14h-7v8.28h7
			C273.69,167.91,275.37,166.19,275.37,163.77L275.37,163.77z"/>
		<path class="st1" d="M290.52,152.47h8.4v38.83h-8.4V152.47z"/>
		<path class="st1" d="M338.07,152.47v38.83h-8.4v-16.06h-14.61v16.06h-8.4v-38.83h8.4v14.96h14.61v-14.96H338.07z"/>
		<path class="st1" d="M345.89,152.47h8.4v38.83h-8.4V152.47z"/>
		<path class="st1" d="M394.71,152.47v38.83h-8.4v-31.03h-10.1l-1.79,16.83c-1.04,9.65-5.44,14.31-13.61,14.31h-2.16v-8.21h2.2
			c3.04,0,4.7-1.83,5.15-5.7l2.88-25.02L394.71,152.47L394.71,152.47z"/>
		<path class="st1" d="M400.16,171.88c0-11.53,8.87-20.26,20.72-20.26c11.81,0,20.63,8.69,20.63,20.26
			c0,11.57-8.83,20.26-20.63,20.26C409.04,192.15,400.16,183.41,400.16,171.88z M433.01,171.88c0-7.05-5.2-12.34-12.12-12.34
			c-6.92,0-12.21,5.35-12.21,12.34c0,6.99,5.29,12.33,12.21,12.33C427.81,184.22,433.01,178.93,433.01,171.88z"/>
		<path class="st1" d="M470.34,170.82c3.43,1.8,5.38,5.17,5.38,9.27c0,6.23-5.48,11.21-12.23,11.21h-16.51v-38.83h16.06
			c6.7,0,11.67,4.27,11.67,9.98C474.72,165.79,473.07,168.9,470.34,170.82L470.34,170.82z M462.7,183.59c2.76,0,4.58-1.83,4.58-4.38
			c0-2.5-1.82-4.33-4.58-4.33h-7.46v8.71H462.7L462.7,183.59z M466.57,163.77c0-2.44-1.69-4.14-4.33-4.14h-7v8.28h7
			C464.89,167.91,466.57,166.19,466.57,163.77L466.57,163.77z"/>
		<path class="st1" d="M513.84,152.47v38.83h-8.4v-23.36l-17.96,23.36h-5.84v-38.83h8.4v23.09l17.7-23.09H513.84z"/>
		<path class="st1" d="M553.88,152.47v38.83h-8.4v-23.36l-17.96,23.36h-5.84v-38.83h8.4v23.09l17.7-23.09H553.88z M529.19,141.92
			h16.68v6.26h-16.68V141.92z"/>
	</g>
	<g>
		<path class="st1" d="M110.57,166.75h68.76v-42.51h-20.88c0-3.73,0.84-9.24-4.11-9.24c-13.16,0-13.35-1.39-13.35,9.24h-9.74
			c0-4,0.74-9.24-4.18-9.24c-12.97,0-13.29-1.4-13.29,9.24c-13.09,0-18.47,2.27-18.47,21.26
			C95.31,157.24,100.88,166.75,110.57,166.75z"/>
		<path class="st1" d="M124.12,111.06c5.22-1.56,6.17-6.77,4.38-10.59c2.22-0.84,3.56-2.4,4.17-4.2c2.16-1.41,3.09-3.69,3.08-6
			c1.8-1.55,2.49-3.81,2.31-6.04c1.11-0.62,1.91-1.46,2.48-2.42c0.29-0.11,0.56-0.22,0.81-0.35c2.45,1.93,5.58,1.8,8.09,0.44
			c0.5,0.01,1-0.01,1.5-0.09c2.18,0.25,4.44-0.47,6.23-2.17c3.02,0.64,6.84-0.76,8.31-4c1.84-1.16,2.81-2.93,3.09-4.82
			c2.64,0.21,6.16-1.05,7.52-4.36c10.93-3.33,2.67-20.83-7.01-13.19c-2.28-0.61-4.93,0.08-6.69,1.48c-0.28-0.14-0.57-0.25-0.87-0.34
			c-2.87-2.78-7.78-3.52-11.21-0.07c-2.02-0.94-4.26-0.76-6.27,0.14c-2.62-0.94-5.76-0.07-7.62,1.63c-2.32,0.13-4.75,1.24-6.08,3.37
			c-4.61,0.37-7.48,3.94-6.85,8.4c-1.65,2.03-1.9,4.82-1.09,7.26c-1.91,0.63-3.23,1.74-4.03,3.11c-4.57,0.77-6.88,4.46-6.13,8.63
			c-0.44,1.41-0.43,2.96-0.06,4.41c-2.22,3.48-0.93,8.65,2.5,10.86C113.88,107.1,117.88,112.93,124.12,111.06z"/>
		<path class="st1" d="M135.07,178.19c-8.06,0-14.59,6.53-14.59,14.59s6.53,14.59,14.59,14.59s14.59-6.53,14.59-14.59
			S143.13,178.19,135.07,178.19z M135.07,201.17c-11.09,0-11.1-16.78,0-16.78C146.16,184.39,146.17,201.17,135.07,201.17z"/>
		<path class="st1" d="M135.07,186.58c-8.19,0-8.18,12.39,0,12.39C143.26,198.97,143.25,186.58,135.07,186.58z"/>
		<path class="st1" d="M169.61,178.19c-8.06,0-14.59,6.53-14.59,14.59s6.53,14.59,14.59,14.59s14.59-6.53,14.59-14.59
			C184.19,184.72,177.66,178.19,169.61,178.19z M161.22,192.78c0-11.09,16.78-11.1,16.78,0
			C177.99,203.86,161.22,203.87,161.22,192.78z"/>
		<path class="st1" d="M163.41,192.78c0,8.19,12.39,8.18,12.39,0C175.8,184.58,163.41,184.59,163.41,192.78z"/>
		<path class="st1" d="M203.95,178.19c-8.06,0-14.59,6.53-14.59,14.59s6.53,14.59,14.59,14.59s14.59-6.53,14.59-14.59
			C218.53,184.72,212,178.19,203.95,178.19z M203.95,201.17c-11.09,0-11.1-16.78,0-16.78C215.03,184.39,215.05,201.17,203.95,201.17
			z"/>
		<path class="st1" d="M203.95,186.58c-8.19,0-8.18,12.39,0,12.39C212.14,198.97,212.13,186.58,203.95,186.58z"/>
		<path class="st1" d="M76.84,197.85h35.07v-5.41h7.76c0.18-8.37,6.99-15.1,15.4-15.1s15.22,6.73,15.4,15.1h3.6
			c0.18-8.37,6.99-15.1,15.4-15.1c8.41,0,15.22,6.73,15.4,15.1h3.6c0.18-8.37,6.99-15.1,15.4-15.1c8.41,0,15.22,6.73,15.4,15.1h6.35
			v-22.3H114.25L76.84,197.85z M110.35,175.4c-3,3.26-17.24,16.07-22.01,19.37C92.25,190.42,106.75,177.95,110.35,175.4z
			 M100.79,194.66c1.06-3.07,7.48-15.49,10.28-19.33C109.48,179.69,102.7,192.12,100.79,194.66z"/>
		<polygon class="st1" points="184.06,89.55 184.06,90.15 170.89,101.56 170.89,118.5 184.06,118.5 184.06,166.75 225.64,166.75 
			225.64,89.55 		"/>
	</g>
</g>
</svg>
